<svg width="20" height="20" viewBox="0 0 20 20" fill="none" xmlns="http://www.w3.org/2000/svg">
<g clip-path="url(#clip0)">
<path d="M7.35063 3.87335C7.35063 4.37735 7.35063 6.62694 7.35063 6.62694H5.33325V9.99405H7.35063V19.9999H11.4947V9.99433H14.2756C14.2756 9.99433 14.5361 8.37983 14.6623 6.61453C14.3004 6.61453 11.5104 6.61453 11.5104 6.61453C11.5104 6.61453 11.5104 4.65565 11.5104 4.3123C11.5104 3.9682 11.9622 3.50535 12.4088 3.50535C12.8546 3.50535 13.7953 3.50535 14.6667 3.50535C14.6667 3.04691 14.6667 1.46291 14.6667 1.20278e-08C13.5035 1.20278e-08 12.1801 1.20278e-08 11.5968 1.20278e-08C7.24819 -0.000232485 7.35063 3.37022 7.35063 3.87335Z" fill="#847777"/>
</g>
<defs>
<clipPath id="clip0">
<rect width="20" height="20" fill="white"/>
</clipPath>
</defs>
</svg>
