<svg width="20" height="20" viewBox="0 0 20 20" fill="none" xmlns="http://www.w3.org/2000/svg">
<g clip-path="url(#clip0)">
<path d="M0.353259 9.64284L4.96166 11.3628L6.74539 17.0993C6.85953 17.4667 7.30879 17.6025 7.60699 17.3587L10.1758 15.2646C10.4451 15.0452 10.8286 15.0342 11.11 15.2385L15.7432 18.6023C16.0622 18.8342 16.5141 18.6594 16.5941 18.2739L19.9882 1.94784C20.0755 1.52678 19.6618 1.17551 19.2609 1.33058L0.347859 8.62664C-0.118874 8.80664 -0.114808 9.46744 0.353259 9.64284ZM6.45793 10.4472L15.4645 4.90011C15.6263 4.80071 15.7929 5.01958 15.6539 5.14851L8.22086 12.0578C7.95959 12.301 7.79106 12.6265 7.74333 12.9798L7.49013 14.8562C7.45659 15.1067 7.10466 15.1316 7.03553 14.8891L6.06173 11.4674C5.95019 11.0772 6.11273 10.6603 6.45793 10.4472Z" fill="#847777"/>
</g>
<defs>
<clipPath id="clip0">
<rect width="20" height="20" fill="white"/>
</clipPath>
</defs>
</svg>
