<svg width="30" height="30" viewBox="0 0 30 30" fill="none" xmlns="http://www.w3.org/2000/svg">
<path d="M11.0258 5.81002C11.0258 6.56603 11.0258 9.94041 11.0258 9.94041H7.99976V14.9911H11.0258V29.9999H17.242V14.9915H21.4133C21.4133 14.9915 21.804 12.5697 21.9934 9.92179C21.4504 9.92179 17.2655 9.92179 17.2655 9.92179C17.2655 9.92179 17.2655 6.98348 17.2655 6.46845C17.2655 5.95231 17.9433 5.25803 18.6131 5.25803C19.2817 5.25803 20.6929 5.25803 21.9999 5.25803C21.9999 4.57037 21.9999 2.19437 21.9999 1.80416e-08C20.2551 1.80416e-08 18.27 1.80416e-08 17.395 1.80416e-08C10.8722 -0.000348727 11.0258 5.05534 11.0258 5.81002Z" fill="#847777"/>
</svg>
