<svg width="31" height="30" viewBox="0 0 31 30" fill="none" xmlns="http://www.w3.org/2000/svg">
<g clip-path="url(#clip0)">
<path d="M11.1966 5.81002C11.1966 6.56603 11.1966 9.94041 11.1966 9.94041H8.19629V14.9911H11.1966V29.9999H17.3598V14.9915H21.4956C21.4956 14.9915 21.8829 12.5697 22.0707 9.92179C21.5324 9.92179 17.3831 9.92179 17.3831 9.92179C17.3831 9.92179 17.3831 6.98347 17.3831 6.46845C17.3831 5.95231 18.0551 5.25803 18.7192 5.25803C19.3821 5.25803 20.7813 5.25803 22.0772 5.25803C22.0772 4.57037 22.0772 2.19437 22.0772 1.80416e-08C20.3472 1.80416e-08 18.3791 1.80416e-08 17.5115 1.80416e-08C11.0442 -0.000348727 11.1966 5.05533 11.1966 5.81002Z" fill="black"/>
</g>
<defs>
<clipPath id="clip0">
<rect x="0.264648" width="29.7444" height="30" fill="white"/>
</clipPath>
</defs>
</svg>
