<svg width="31" height="30" viewBox="0 0 31 30" fill="none" xmlns="http://www.w3.org/2000/svg">
<g clip-path="url(#clip0)">
<path d="M30.2625 18.2426V29.3337H23.8873V18.9854C23.8873 16.3858 22.9652 14.6117 20.6576 14.6117C18.896 14.6117 17.8477 15.8073 17.3865 16.9639C17.2183 17.3773 17.175 17.9528 17.175 18.5316V29.3337H10.7977C10.7977 29.3337 10.8836 11.807 10.7977 9.99111H17.1744V12.7328C17.1615 12.7534 17.1447 12.7755 17.1325 12.7953H17.1744V12.7328C18.0216 11.4168 19.5346 9.5367 22.9213 9.5367C27.117 9.53663 30.2625 12.3012 30.2625 18.2426ZM4.12674 0.666992C1.94506 0.666992 0.518066 2.1103 0.518066 4.00829C0.518066 5.86493 1.90378 7.35203 4.04209 7.35203H4.08469C6.30862 7.35203 7.69171 5.86521 7.69171 4.00829C7.6498 2.1103 6.30862 0.666992 4.12674 0.666992ZM0.896824 29.3337H7.27173V9.99111H0.896824V29.3337Z" fill="black"/>
</g>
<defs>
<clipPath id="clip0">
<rect x="0.518066" width="29.7444" height="30" fill="white"/>
</clipPath>
</defs>
</svg>
