<svg width="20" height="20" viewBox="0 0 20 20" fill="none" xmlns="http://www.w3.org/2000/svg">
<g clip-path="url(#clip0)">
<path d="M20 3.80005C19.2639 4.12623 18.474 4.34744 17.6442 4.4462C18.4915 3.93878 19.1401 3.13394 19.4476 2.17786C18.6527 2.64777 17.7754 2.98898 16.8405 3.17394C16.0919 2.37535 15.0271 1.87793 13.8461 1.87793C11.5803 1.87793 9.7431 3.71509 9.7431 5.97966C9.7431 6.30084 9.77935 6.61453 9.84935 6.9145C6.44 6.74326 3.41683 5.10982 1.39346 2.62777C1.03977 3.23267 0.838562 3.9375 0.838562 4.68989C0.838562 6.11339 1.56343 7.3694 2.66324 8.10424C1.99085 8.08175 1.35846 7.89679 0.804837 7.58933V7.64058C0.804837 9.6277 2.21958 11.2861 4.09546 11.6636C3.75176 11.7561 3.38935 11.8073 3.01441 11.8073C2.74948 11.8073 2.49327 11.7811 2.24206 11.7311C2.76444 13.362 4.27918 14.548 6.07386 14.5805C4.67036 15.6803 2.90069 16.334 0.978562 16.334C0.647386 16.334 0.321176 16.314 0 16.2777C1.81592 17.4438 3.97176 18.1236 6.28882 18.1236C13.8361 18.1236 17.9616 11.8723 17.9616 6.45084L17.9479 5.91969C18.754 5.34476 19.4513 4.62241 20 3.80005Z" fill="#010002"/>
</g>
<defs>
<clipPath id="clip0">
<rect width="20" height="20" fill="white"/>
</clipPath>
</defs>
</svg>
