<svg width="31" height="30" viewBox="0 0 31 30" fill="none" xmlns="http://www.w3.org/2000/svg">
<g clip-path="url(#clip0)">
<path d="M30.1232 5.69959C29.0285 6.18886 27.8538 6.52067 26.6196 6.66881C27.8798 5.90768 28.8445 4.70043 29.3017 3.26631C28.1196 3.97116 26.8148 4.48297 25.4245 4.76043C24.3111 3.56253 22.7275 2.81641 20.9711 2.81641C17.6013 2.81641 14.869 5.57214 14.869 8.969C14.869 9.45077 14.9229 9.92131 15.027 10.3713C9.9566 10.1144 5.46048 7.66425 2.45129 3.94116C1.92527 4.84851 1.62603 5.90577 1.62603 7.03435C1.62603 9.16959 2.70407 11.0536 4.33972 12.1559C3.33974 12.1221 2.39924 11.8447 1.57587 11.3835V11.4604C1.57587 14.4411 3.6799 16.9287 6.46975 17.4949C5.9586 17.6336 5.41961 17.7105 4.862 17.7105C4.46798 17.7105 4.08694 17.6711 3.71334 17.5961C4.49024 20.0425 6.74299 21.8215 9.41206 21.8703C7.32475 23.52 4.69286 24.5005 1.83424 24.5005C1.34171 24.5005 0.856566 24.4705 0.378906 24.4161C3.07957 26.1652 6.28579 27.185 9.73177 27.185C20.9563 27.185 27.0918 17.808 27.0918 9.67577L27.0713 8.87905C28.2702 8.01665 29.3073 6.93312 30.1232 5.69959Z" fill="#010002"/>
</g>
<defs>
<clipPath id="clip0">
<rect x="0.378906" width="29.7444" height="30" fill="white"/>
</clipPath>
</defs>
</svg>
