<svg width="28" height="27" viewBox="0 0 28 27" fill="none" xmlns="http://www.w3.org/2000/svg">
<path d="M15.8885 13.5007L26.5066 2.88262C27.1663 2.22349 27.1663 1.15403 26.5066 0.4949C25.8469 -0.164791 24.7786 -0.164791 24.1189 0.4949L13.5008 11.113L2.88212 0.4949C2.22243 -0.164791 1.15409 -0.164791 0.494396 0.4949C-0.165295 1.15403 -0.165295 2.22349 0.494396 2.88262L11.1131 13.5007L0.494396 24.1188C-0.165295 24.778 -0.165295 25.8474 0.494396 26.5065C0.824242 26.8358 1.25653 27.0008 1.68826 27.0008C2.11998 27.0008 2.55227 26.8358 2.88212 26.506L13.5008 15.8879L24.1189 26.506C24.4487 26.8358 24.881 27.0008 25.3127 27.0008C25.7445 27.0008 26.1768 26.8358 26.5066 26.506C27.1663 25.8469 27.1663 24.7774 26.5066 24.1183L15.8885 13.5007Z" fill="black"/>
</svg>
