<svg width="277" height="117" viewBox="0 0 277 117" fill="none" xmlns="http://www.w3.org/2000/svg">
<path fill-rule="evenodd" clip-rule="evenodd" d="M43.6389 73.4293C43.6389 73.4293 42.9671 70.4113 47.3777 61.1886C51.7883 51.9659 62.9682 39.4761 63.9686 39.1391C64.969 38.8021 65.5678 39.1391 66.4149 39.6665C67.262 40.194 71.1395 43.0142 71.1979 43.3878C71.2564 43.7614 71.4754 44.3035 68.5691 47.9003C65.6628 51.4971 57.915 62.6537 56.3085 66.0527C54.702 69.4516 54.775 70.8288 55.3081 71.0339C56.0383 71.3343 73.4251 56.3245 73.4251 56.3245L72.6949 59.9872C72.6949 59.9872 54.9941 78.6743 53.8257 79.2897C52.446 80.0079 50.8197 80.075 49.3859 79.4728C47.7136 78.7915 45.2527 76.1397 44.8803 75.6563C44.3924 74.958 43.9765 74.2119 43.6389 73.4293Z" fill="black"/>
<path fill-rule="evenodd" clip-rule="evenodd" d="M195.453 59.6361C193.609 61.512 192.031 63.6344 190.765 65.9433C189.816 67.6501 188.406 71.2982 189.159 72.7046C189.538 73.4372 208.415 57.0795 208.415 57.0795L207.597 60.669C207.597 60.669 189.633 78.4551 188.465 79.0191C187.084 79.6905 185.475 79.7039 184.083 79.0558C182.462 78.3232 180.133 75.6568 179.775 75.1733C179.383 74.6065 179.066 73.9908 178.833 73.3419C178.833 73.3419 178.307 69.5181 183.339 61.1744C185.179 58.1344 188.348 54.8013 189.334 54.5083C189.334 54.5083 189.473 54.1933 191.123 54.6768C192.912 55.2042 195.592 57.4971 196.023 58.4201C196.256 58.8669 195.453 59.6361 195.453 59.6361Z" fill="black"/>
<path fill-rule="evenodd" clip-rule="evenodd" d="M146.024 72.7704C146.024 72.7704 145.331 69.767 149.873 60.6102C154.415 51.4535 165.938 39.0662 166.982 38.7366C168.026 38.4069 168.632 38.7366 169.509 39.2567C170.385 39.7768 174.394 42.5971 174.46 42.9633C174.525 43.3296 174.744 43.879 171.743 47.4465C168.742 51.014 160.79 62.0973 159.103 65.4597C157.416 68.822 157.138 70.397 158.489 70.5142C159.329 70.5801 176.745 55.8194 176.745 55.8194L176.015 59.4821C176.015 59.4821 157.759 78.0227 156.547 78.6307C155.113 79.34 153.445 79.4039 151.961 78.8065C150.23 78.1253 147.682 75.4881 147.295 75.0047C146.798 74.3044 146.372 73.5559 146.024 72.7704Z" fill="black"/>
<path fill-rule="evenodd" clip-rule="evenodd" d="M154.459 43.1469C154.649 41.3668 148.72 38.6051 146.551 39.0153C143.849 39.5281 138.475 45.1687 134.707 49.7324C130.471 54.8602 126.25 63.05 124.878 66.6614C123.505 70.2728 123.103 72.7195 125.257 75.2321C127.214 77.5103 128.624 78.6751 130.369 78.741C131.187 78.741 138.518 67.6503 147.033 59.1675C152.621 53.7138 158.767 48.8669 165.369 44.7072L167.691 38.5685C163.2 38.6344 135.89 64.2074 134.561 66.7493C135.018 65.6008 135.552 64.4848 136.16 63.4089C139.07 58.8082 142.473 54.5413 146.31 50.6847C149.844 47.2125 154.401 43.667 154.459 43.1469Z" fill="black"/>
<path fill-rule="evenodd" clip-rule="evenodd" d="M212.819 23.368C214.623 22.2912 209.417 18.6578 206.196 19.2511C200.836 20.2401 180.828 42.209 174.066 51.7613C170.415 56.933 165.873 64.0167 164.573 67.445C163.273 70.8733 162.886 73.2101 164.931 75.5908C166.793 77.7885 168.297 79.6418 169.765 78.9312C170.846 78.4038 177.001 67.8405 185.604 60.3247C194.542 52.5598 205.824 49.8347 208.014 50.5526C209.124 50.9189 208.577 44.5091 207.343 43.3151C201.012 37.1764 175.044 65.1448 173.752 67.5549C173.752 67.5549 174.833 66.0019 175.687 64.5368C177.235 61.885 181.529 56.618 184.917 52.2887C187.568 48.9264 210.505 24.7672 212.819 23.368Z" fill="black"/>
<path fill-rule="evenodd" clip-rule="evenodd" d="M254.019 39.6964C254.019 39.6964 245.833 45.2051 240.612 51.4683C235.391 57.7315 228.614 69.3936 231.309 74.6459C234.004 79.8982 238.195 80.2352 239.816 79.466C241.934 78.4624 247.119 76.7923 257.283 68.6611C267.12 60.7936 277.065 47.4833 277 45.6959C276.934 43.9085 273.663 40.7659 272.962 40.1359C272.26 39.5059 271.501 38.495 270.975 40.5315C270.669 41.6376 269.741 46.1354 261.884 56.0467C255.502 64.1046 242.43 76.0084 239.904 75.8253C237.494 75.6202 238.575 71.8696 242.35 65.2621C246.483 58.0319 255.151 50.5453 259.686 47.0804C263.023 44.5385 263.775 44.5385 263.826 44.0404C263.877 43.5422 257.481 39.2642 257.481 39.2642C256.829 38.9562 256.095 38.8737 255.392 39.0298C254.905 39.1852 254.443 39.4097 254.019 39.6964Z" fill="black"/>
<path fill-rule="evenodd" clip-rule="evenodd" d="M86.0207 39.718C86.0207 39.718 77.8421 45.2267 72.6209 51.4826C67.3998 57.7385 60.6159 69.4152 63.3178 74.6455C66.0196 79.8759 70.1966 80.2348 71.825 79.4656C73.9427 78.4621 79.1273 76.7919 89.2849 68.668C99.1211 60.7932 109.074 47.4829 109.001 45.6955C108.928 43.9081 105.664 40.7728 104.97 40.1355C104.16 39.403 103.51 38.4946 102.984 40.5311C102.677 41.6372 101.743 46.135 93.8927 56.0463C87.5104 64.1043 74.4319 76.0154 71.9053 75.8249C69.5028 75.6198 70.5763 71.8692 74.3589 65.2617C78.492 58.0388 87.1599 50.5449 91.6947 47.0873C95.0318 44.5381 95.7767 44.5381 95.8351 44.0473C95.8935 43.5565 89.482 39.2638 89.482 39.2638C88.8325 38.9595 88.1015 38.8772 87.4009 39.0294C86.9116 39.1945 86.4472 39.4262 86.0207 39.718Z" fill="black"/>
<path d="M130.915 51.0068C136.071 41.9965 127.593 39.0664 123.796 39.6377C119.998 40.2091 108.731 45.7911 102.02 56.4422C95.3093 67.0934 98.2886 73.8767 98.8728 74.9242C99.9439 76.8412 101.696 78.2825 103.78 78.9605C105.898 79.5392 109.308 78.9605 111.301 77.869C112.762 77.0926 122.985 72.7413 127.527 65.7235C128.002 64.991 131.317 54.5449 130.645 55.4679C122.817 66.3975 111.988 75.2465 108.738 75.3345C108.125 75.3345 106.453 75.0341 106.453 72.1332C106.541 70.6826 106.786 69.2458 107.183 67.8479C107.183 67.8479 125.767 59.995 130.915 51.0068ZM122.087 48.2744C128.33 43.6374 129.061 45.564 129.229 46.2453C129.397 46.9265 129.513 48.3623 124.811 53.0286C120.794 57.0063 109.899 62.2659 109.899 62.2659C109.899 62.2659 115.164 53.4022 122.087 48.2744Z" fill="black"/>
<path fill-rule="evenodd" clip-rule="evenodd" d="M214.885 47.3734C214.885 47.3734 208.743 51.9371 202.938 61.3942C197.133 70.8513 200.835 74.6459 201.602 75.6568C202.368 76.6677 204.946 78.5869 206.713 78.8946C208.174 79.151 209.452 78.6675 215.308 74.6971C222.413 69.877 231.819 59.0354 234.367 55.5119C236.916 51.9884 239.639 45.5933 239.304 43.8498C238.968 42.1064 236.032 40.3996 235.404 40.2677C234.776 40.1358 230.292 40.883 225.115 46.6701C221.99 50.179 220.5 53.0432 220.493 55.0504C220.485 57.0575 224.1 61.8044 232.907 59.7753C239.099 58.3468 240.472 57.3066 240.472 57.3066L242.663 52.6989C242.663 52.6989 231.067 58.9622 229.314 57.0942C227.919 55.6291 233.403 48.8458 234.374 48.7872C235.105 48.7432 234.177 51.3437 224.509 61.4088C219.392 66.6612 213.662 71.2753 207.443 75.1513C206.713 73.9719 206.801 68.6244 215.549 58.4274C222.121 50.809 222.669 50.8822 222.669 50.8822C223.264 50.3426 223.349 49.4366 222.866 48.7945C222.216 47.9887 218.192 46.3991 217.104 46.4943C216.299 46.5829 215.533 46.8864 214.885 47.3734Z" fill="black"/>
<path d="M224.18 49.0802H221.259V52.0104H224.18V49.0802Z" fill="black"/>
<path fill-rule="evenodd" clip-rule="evenodd" d="M79.1287 36.1725C78.0041 36.4802 74.4406 37.0223 72.2937 35.3374C69.2048 32.9127 70.5411 25.3309 80.7571 24.7595C90.7394 24.2101 92.5138 20.0053 92.5138 20.0053C92.5138 20.0053 91.7033 24.2028 88.5633 26.4517C86.2119 28.1365 86.0075 28.1219 86.0075 28.1219C86.0075 28.1219 86.9714 28.4003 89.1767 27.3894C89.5586 27.2417 89.8906 26.9875 90.1333 26.6568C89.3568 28.9322 87.9848 30.9563 86.1608 32.5171C84.1117 34.2371 81.7111 35.485 79.1287 36.1725Z" fill="black"/>
<path fill-rule="evenodd" clip-rule="evenodd" d="M43.4264 48.831C52.0067 43.7032 61.4778 38.363 70.4451 23.0895C80.0915 6.61466 73.5048 -2.2564 55.1102 0.497949C34.0941 3.64055 4.43926 23.9393 0.642043 43.3369C-3.06754 62.2511 33.5026 71.0197 26.3025 82.3814C18.2042 95.1129 1.22623 100.08 7.81294 90.8642C14.6479 81.2972 31.5236 75.8178 37.9059 73.6495C42.0171 72.2576 46.0699 71.2834 46.0699 71.2834L46.7344 67.8331C46.7344 67.8331 24.2505 74.4992 13.8739 80.9236C3.76744 87.1722 1.29925 92.0802 2.02219 95.4719C2.74512 98.8635 7.82754 105.903 12.6617 105.661C17.4958 105.42 28.8583 100.534 33.9334 92.3219C39.0085 84.1102 39.9213 78.9311 16.0427 61.2842C-2.32271 47.7029 35.3866 20.5256 46.99 13.9914C56.8993 8.41672 68.0061 4.60018 70.3137 6.10921C75.9072 9.77192 45.7778 35.4548 31.6113 42.2454C31.6113 42.2454 29.9171 42.5311 31.2461 44.3039C31.2461 44.3039 35.9123 48.8749 36.5622 49.483C38.8333 51.5853 42.7911 49.2119 43.4264 48.831Z" fill="black"/>
<path fill-rule="evenodd" clip-rule="evenodd" d="M204.676 88.4544C190.663 85.2459 178.964 83.1654 141.489 83.268C96.0391 83.3925 70.3056 94.4759 64.4711 99.9699C59.8049 104.365 60.6154 109.632 64.2374 113.038C67.8594 116.445 70.3275 117.199 70.8095 117.119C71.8464 116.95 70.8533 116.547 72.4963 114.782C73.2266 114.005 84.6182 99.1934 127.797 94.2708C172.422 89.143 195.168 92.2783 204.837 93.4283C214.505 94.5784 215.965 95.5014 216.827 95.8457C218.375 96.4611 217.776 97.4427 218.675 96.6442C219.179 96.0392 219.269 95.1879 218.901 94.4905C218.543 93.5895 216.411 91.1428 204.676 88.4544Z" fill="black"/>
<path fill-rule="evenodd" clip-rule="evenodd" d="M229.087 56.4394L233.347 56.8717L230.606 60.1696L227.894 60.812L225.927 59.9249L229.087 56.4394Z" fill="black"/>
</svg>
