<svg width="204" height="86" viewBox="0 0 204 86" fill="none" xmlns="http://www.w3.org/2000/svg">
<g clip-path="url(#clip0)">
<path fill-rule="evenodd" clip-rule="evenodd" d="M32.1388 53.9741C32.1388 53.9741 31.644 51.7557 34.8923 44.9766C38.1405 38.1975 46.3741 29.017 47.1108 28.7693C47.8476 28.5216 48.2886 28.7693 48.9124 29.157C49.5363 29.5446 52.3919 31.6177 52.435 31.8923C52.478 32.1669 52.6393 32.5653 50.4989 35.2091C48.3585 37.8529 42.6526 46.0535 41.4694 48.5519C40.2863 51.0503 40.3401 52.0626 40.7327 52.2133C41.2705 52.4341 54.0752 41.4013 54.0752 41.4013L53.5374 44.0935C53.5374 44.0935 40.5014 57.8294 39.641 58.2817C38.6249 58.8096 37.4272 58.8589 36.3712 58.4163C35.1397 57.9155 33.3273 55.9663 33.053 55.6109C32.6937 55.0977 32.3874 54.5493 32.1388 53.9741Z" fill="black"/>
<path fill-rule="evenodd" clip-rule="evenodd" d="M143.944 43.8345C142.586 45.2133 141.424 46.7734 140.491 48.4705C139.792 49.7251 138.754 52.4066 139.308 53.4404C139.588 53.9789 153.49 41.9553 153.49 41.9553L152.888 44.5937C152.888 44.5937 139.658 57.6672 138.797 58.0818C137.78 58.5753 136.596 58.5852 135.571 58.1088C134.377 57.5703 132.661 55.6104 132.398 55.255C132.109 54.8383 131.876 54.3858 131.704 53.9089C131.704 53.9089 131.317 51.0982 135.022 44.9652C136.377 42.7307 138.711 40.2807 139.437 40.0653C139.437 40.0653 139.54 39.8338 140.755 40.1892C142.073 40.5769 144.046 42.2622 144.364 42.9406C144.536 43.2691 143.944 43.8345 143.944 43.8345Z" fill="black"/>
<path fill-rule="evenodd" clip-rule="evenodd" d="M107.542 53.4894C107.542 53.4894 107.031 51.2818 110.376 44.5512C113.721 37.8206 122.207 28.7154 122.976 28.4731C123.745 28.2308 124.192 28.4731 124.837 28.8554C125.482 29.2377 128.435 31.3107 128.483 31.58C128.532 31.8492 128.693 32.253 126.483 34.8753C124.272 37.4975 118.416 45.6442 117.173 48.1157C115.931 50.5872 115.727 51.7449 116.722 51.831C117.34 51.8795 130.166 41.0297 130.166 41.0297L129.629 43.722C129.629 43.722 116.184 57.3501 115.291 57.797C114.235 58.3184 113.007 58.3654 111.914 57.9262C110.639 57.4255 108.762 55.4871 108.477 55.1317C108.111 54.617 107.798 54.0668 107.542 53.4894Z" fill="black"/>
<path fill-rule="evenodd" clip-rule="evenodd" d="M113.754 31.7149C113.894 30.4065 109.527 28.3765 107.93 28.6781C105.94 29.055 101.982 33.201 99.2067 36.5556C96.0875 40.3247 92.9791 46.3446 91.968 48.9991C90.957 51.6537 90.6612 53.4521 92.2477 55.299C93.689 56.9735 94.7269 57.8297 96.0122 57.8781C96.6146 57.8781 102.014 49.726 108.285 43.4908C112.4 39.4821 116.926 35.9194 121.788 32.8618L123.499 28.3496C120.191 28.3981 100.078 47.1953 99.0991 49.0637C99.4357 48.2195 99.8292 47.3992 100.277 46.6084C102.42 43.2267 104.927 40.0903 107.752 37.2555C110.355 34.7033 113.711 32.0972 113.754 31.7149Z" fill="black"/>
<path fill-rule="evenodd" clip-rule="evenodd" d="M156.734 17.1764C158.062 16.3849 154.228 13.7142 151.856 14.1503C147.909 14.8773 133.173 31.0253 128.193 38.0467C125.504 41.8481 122.159 47.0549 121.202 49.5749C120.245 52.0948 119.96 53.8125 121.466 55.5624C122.837 57.1778 123.945 58.5401 125.026 58.0178C125.822 57.6301 130.355 49.8656 136.69 44.3412C143.273 38.6336 151.582 36.6306 153.195 37.1583C154.013 37.4275 153.609 32.7161 152.7 31.8384C148.038 27.3262 128.914 47.8842 127.962 49.6557C127.962 49.6557 128.758 48.5141 129.387 47.4372C130.527 45.4881 133.69 41.6166 136.185 38.4344C138.137 35.9629 155.029 18.2049 156.734 17.1764Z" fill="black"/>
<path fill-rule="evenodd" clip-rule="evenodd" d="M187.076 29.1785C187.076 29.1785 181.047 33.2276 177.202 37.8313C173.357 42.4351 168.366 51.0072 170.351 54.8679C172.335 58.7285 175.422 58.9762 176.616 58.4108C178.176 57.6732 181.994 56.4455 189.48 50.4687C196.724 44.6858 204.049 34.9022 204 33.5884C203.952 32.2745 201.543 29.9646 201.026 29.5015C200.51 29.0385 199.951 28.2954 199.563 29.7923C199.338 30.6053 198.655 33.9114 192.868 41.1966C188.168 47.1196 178.541 55.8694 176.68 55.7348C174.906 55.584 175.702 52.8271 178.482 47.9703C181.526 42.6558 187.91 37.1529 191.249 34.606C193.707 32.7376 194.261 32.7376 194.298 32.3715C194.336 32.0053 189.625 28.8608 189.625 28.8608C189.146 28.6344 188.605 28.5738 188.087 28.6885C187.728 28.8027 187.388 28.9677 187.076 29.1785Z" fill="black"/>
<path fill-rule="evenodd" clip-rule="evenodd" d="M63.3512 29.1947C63.3512 29.1947 57.328 33.2438 53.4828 37.8422C49.6376 42.4405 44.6415 51.0234 46.6313 54.8679C48.6211 58.7124 51.6973 58.9763 52.8966 58.4109C54.4562 57.6732 58.2745 56.4456 65.7551 50.4742C72.9991 44.6859 80.3292 34.9023 80.2754 33.5884C80.2217 32.2746 77.8177 29.9701 77.3068 29.5016C76.7099 28.9632 76.2313 28.2955 75.8441 29.7924C75.6182 30.6054 74.9298 33.9115 69.1486 41.1967C64.4483 47.1196 54.8165 55.8748 52.9557 55.7348C51.1864 55.5841 51.9769 52.8272 54.7627 47.9704C57.8066 42.6613 64.1901 37.153 67.5298 34.6115C69.9875 32.7377 70.5361 32.7377 70.5791 32.3769C70.6221 32.0162 65.9003 28.8609 65.9003 28.8609C65.422 28.6372 64.8836 28.5767 64.3676 28.6886C64.0073 28.8099 63.6653 28.9802 63.3512 29.1947Z" fill="black"/>
<path d="M96.4142 37.4921C100.211 30.8692 93.9672 28.7154 91.1707 29.1354C88.3742 29.5554 80.0761 33.6583 75.1339 41.4874C70.1916 49.3164 72.3858 54.3025 72.816 55.0724C73.6048 56.4815 74.8953 57.5409 76.4299 58.0393C77.9895 58.4647 80.501 58.0393 81.9692 57.237C83.0447 56.6663 90.5738 53.4679 93.9188 48.3095C94.2684 47.7711 96.71 40.0928 96.2152 40.7713C90.4501 48.8049 82.4747 55.3094 80.0815 55.374C79.6298 55.374 78.3982 55.1532 78.3982 53.021C78.4636 51.9546 78.6439 50.8985 78.936 49.871C78.936 49.871 92.6228 44.0989 96.4142 37.4921ZM89.9123 35.4837C94.5104 32.0753 95.0482 33.4914 95.1719 33.9922C95.2956 34.4929 95.3816 35.5483 91.9183 38.9782C88.9604 41.902 80.9366 45.7681 80.9366 45.7681C80.9366 45.7681 84.8141 39.2528 89.9123 35.4837Z" fill="black"/>
<path fill-rule="evenodd" clip-rule="evenodd" d="M158.254 34.8207C158.254 34.8207 153.732 38.1753 149.456 45.1266C145.181 52.078 147.907 54.8672 148.472 55.6102C149.037 56.3533 150.935 57.764 152.237 57.9902C153.312 58.1786 154.253 57.8233 158.566 54.9049C163.799 51.3619 170.726 43.3928 172.603 40.8029C174.48 38.2129 176.486 33.5123 176.238 32.2308C175.991 30.9493 173.829 29.6947 173.366 29.5978C172.904 29.5008 169.602 30.0501 165.789 34.3038C163.487 36.883 162.39 38.9883 162.385 40.4637C162.379 41.939 165.041 45.4282 171.527 43.9367C176.088 42.8867 177.099 42.1221 177.099 42.1221L178.712 38.7352C178.712 38.7352 170.172 43.339 168.881 41.9659C167.854 40.889 171.893 35.903 172.608 35.8599C173.146 35.8276 172.463 37.7391 165.343 45.1374C161.574 48.9981 157.354 52.3897 152.774 55.2387C152.237 54.3718 152.301 50.4411 158.744 42.9459C163.584 37.346 163.987 37.3999 163.987 37.3999C164.425 37.0032 164.488 36.3373 164.133 35.8653C163.654 35.273 160.691 34.1046 159.889 34.1746C159.296 34.2397 158.732 34.4628 158.254 34.8207Z" fill="black"/>
<path d="M165.1 36.0762H162.949V38.23H165.1V36.0762Z" fill="black"/>
<path fill-rule="evenodd" clip-rule="evenodd" d="M58.2753 26.5877C57.4471 26.8138 54.8227 27.2123 53.2416 25.9738C50.9667 24.1916 51.9509 18.6186 59.4745 18.1986C66.8261 17.7948 68.133 14.7041 68.133 14.7041C68.133 14.7041 67.536 17.7894 65.2235 19.4424C63.4918 20.6809 63.3413 20.6701 63.3413 20.6701C63.3413 20.6701 64.0511 20.8747 65.6753 20.1317C65.9566 20.0231 66.201 19.8363 66.3798 19.5932C65.8079 21.2657 64.7975 22.7535 63.4542 23.9008C61.9451 25.1651 60.1772 26.0823 58.2753 26.5877Z" fill="black"/>
<path fill-rule="evenodd" clip-rule="evenodd" d="M31.9822 35.8927C38.3012 32.1235 45.2763 28.1982 51.8804 16.9716C58.9846 4.86185 54.1337 -1.65877 40.5868 0.365801C25.1092 2.67575 3.26957 17.5962 0.473061 31.8543C-2.25891 45.757 24.6736 52.2023 19.371 60.5536C13.4069 69.9118 0.903293 73.5625 5.75416 66.7888C10.7879 59.7567 23.2162 55.7291 27.9165 54.1353C30.9442 53.1122 33.929 52.3961 33.929 52.3961L34.4183 49.86C34.4183 49.86 17.8598 54.7599 10.2178 59.4821C2.7748 64.0751 0.957071 67.6827 1.48948 70.1757C2.0219 72.6687 5.76491 77.8432 9.32508 77.6655C12.8852 77.4878 21.2533 73.8964 24.9909 67.8604C28.7285 61.8243 29.4008 58.0175 11.815 45.0463C-1.71037 35.0634 26.0611 15.087 34.6066 10.284C41.9044 6.18643 50.0842 3.38111 51.7836 4.49032C55.903 7.18256 33.7138 26.0606 23.2807 31.052C23.2807 31.052 22.033 31.262 23.0118 32.565C23.0118 32.565 26.4483 35.925 26.9269 36.3719C28.5995 37.9172 31.5143 36.1726 31.9822 35.8927Z" fill="black"/>
<path fill-rule="evenodd" clip-rule="evenodd" d="M150.736 65.018C140.416 62.6596 131.801 61.1304 104.201 61.2058C70.7294 61.2973 51.7777 69.4441 47.4808 73.4824C44.0443 76.7131 44.6413 80.5846 47.3087 83.0884C49.9761 85.5921 51.7939 86.1467 52.1488 86.0875C52.9125 85.9637 52.1811 85.6675 53.3911 84.3699C53.9289 83.7991 62.3184 72.9117 94.1179 69.2933C126.982 65.5242 143.734 67.8287 150.855 68.6741C157.975 69.5194 159.051 70.1979 159.685 70.451C160.825 70.9033 160.384 71.6248 161.046 71.0379C161.418 70.5931 161.483 69.9674 161.213 69.4548C160.949 68.7925 159.379 66.9941 150.736 65.018Z" fill="black"/>
<path fill-rule="evenodd" clip-rule="evenodd" d="M168.714 41.4854L171.852 41.8031L169.833 44.2272L167.836 44.6994L166.387 44.0473L168.714 41.4854Z" fill="black"/>
</g>
<defs>
<clipPath id="clip0">
<rect width="204" height="86" fill="white"/>
</clipPath>
</defs>
</svg>
