<svg width="140" height="60" viewBox="0 0 140 60" fill="none" xmlns="http://www.w3.org/2000/svg">
<path fill-rule="evenodd" clip-rule="evenodd" d="M21.8948 37.6163C21.8948 37.6163 21.5548 36.0701 23.787 31.3455C26.0192 26.6209 31.6774 20.2225 32.1837 20.0499C32.69 19.8773 32.9931 20.0499 33.4218 20.3201C33.8505 20.5903 35.813 22.0351 35.8425 22.2265C35.8721 22.4178 35.983 22.6955 34.512 24.5381C33.0411 26.3807 29.1199 32.096 28.3069 33.8373C27.4938 35.5785 27.5308 36.284 27.8006 36.3891C28.1701 36.543 36.9697 28.8537 36.9697 28.8537L36.6001 30.7301C36.6001 30.7301 27.6416 40.3032 27.0503 40.6184C26.3521 40.9864 25.529 41.0207 24.8033 40.7122C23.957 40.3632 22.7115 39.0047 22.523 38.7571C22.2761 38.3994 22.0656 38.0171 21.8948 37.6163Z" fill="black"/>
<path fill-rule="evenodd" clip-rule="evenodd" d="M98.7294 30.5498C97.7958 31.5108 96.9974 32.5981 96.3568 33.7809C95.8763 34.6553 95.163 36.5241 95.5437 37.2447C95.7359 37.6199 105.289 29.2402 105.289 29.2402L104.875 31.079C104.875 31.079 95.7839 40.1905 95.1926 40.4795C94.4937 40.8234 93.6796 40.8303 92.9751 40.4982C92.1547 40.123 90.9757 38.757 90.7946 38.5093C90.5963 38.2189 90.436 37.9036 90.3179 37.5711C90.3179 37.5711 90.0518 35.6122 92.5982 31.3379C93.5295 29.7805 95.1335 28.0731 95.6324 27.923C95.6324 27.923 95.7026 27.7616 96.5378 28.0093C97.4433 28.2795 98.7997 29.4541 99.0177 29.9269C99.136 30.1558 98.7294 30.5498 98.7294 30.5498Z" fill="black"/>
<path fill-rule="evenodd" clip-rule="evenodd" d="M73.7129 37.2784C73.7129 37.2784 73.3619 35.7398 75.6606 31.0489C77.9594 26.358 83.7913 20.0122 84.3198 19.8434C84.8483 19.6745 85.155 19.8434 85.5985 20.1098C86.042 20.3762 88.0709 21.821 88.1042 22.0087C88.1375 22.1963 88.2483 22.4777 86.7294 24.3053C85.2104 26.1329 81.1858 31.8107 80.332 33.5332C79.4783 35.2557 79.3379 36.0625 80.0216 36.1225C80.4466 36.1563 89.261 28.5946 89.261 28.5946L88.8914 30.471C88.8914 30.471 79.652 39.969 79.0385 40.2805C78.3126 40.6439 77.4687 40.6766 76.7176 40.3706C75.8417 40.0216 74.5519 38.6706 74.356 38.4229C74.1045 38.0642 73.8891 37.6808 73.7129 37.2784Z" fill="black"/>
<path fill-rule="evenodd" clip-rule="evenodd" d="M77.981 22.1023C78.077 21.1904 75.0761 19.7756 73.9785 19.9858C72.611 20.2485 69.891 23.138 67.9839 25.476C65.8404 28.1028 63.7043 32.2984 63.0095 34.1484C62.3147 35.9985 62.1114 37.2519 63.2016 38.5391C64.1921 39.7062 64.9054 40.3029 65.7887 40.3366C66.2026 40.3366 69.9131 34.6551 74.2224 30.3094C77.0505 27.5156 80.1611 25.0326 83.5024 22.9016L84.6776 19.7569C82.4048 19.7906 68.5827 32.8913 67.91 34.1935C68.1413 33.6051 68.4117 33.0334 68.7194 32.4822C70.1921 30.1254 71.9147 27.9395 73.8565 25.9638C75.6452 24.185 77.9514 22.3687 77.981 22.1023Z" fill="black"/>
<path fill-rule="evenodd" clip-rule="evenodd" d="M107.518 11.9702C108.431 11.4185 105.796 9.5572 104.166 9.86117C101.453 10.3678 91.327 21.6221 87.9047 26.5156C86.0568 29.165 83.7581 32.7939 83.1002 34.5501C82.4424 36.3064 82.2465 37.5035 83.2813 38.7231C84.2238 39.8489 84.9851 40.7984 85.7279 40.4344C86.2749 40.1642 89.3904 34.7528 93.744 30.9025C98.2676 26.9247 103.978 25.5287 105.086 25.8964C105.648 26.0841 105.371 22.8005 104.746 22.1888C101.542 19.044 88.4 33.3718 87.7458 34.6064C87.7458 34.6064 88.2928 33.8109 88.7252 33.0603C89.5087 31.7018 91.6818 29.0037 93.3966 26.7858C94.7382 25.0633 106.347 12.6869 107.518 11.9702Z" fill="black"/>
<path fill-rule="evenodd" clip-rule="evenodd" d="M128.369 20.335C128.369 20.335 124.226 23.157 121.584 26.3656C118.941 29.5741 115.512 35.5484 116.875 38.2391C118.239 40.9298 120.361 41.1024 121.181 40.7083C122.253 40.1942 124.877 39.3386 130.021 35.1731C134.999 31.1427 140.033 24.3241 140 23.4084C139.967 22.4928 138.311 20.8829 137.956 20.5601C137.601 20.2374 137.217 19.7195 136.951 20.7628C136.796 21.3294 136.326 23.6336 132.35 28.711C129.12 32.8389 122.504 38.9371 121.225 38.8433C120.006 38.7382 120.553 36.8168 122.463 33.4319C124.555 29.728 128.942 25.8927 131.237 24.1177C132.926 22.8155 133.307 22.8155 133.333 22.5603C133.359 22.3051 130.121 20.1136 130.121 20.1136C129.792 19.9558 129.42 19.9135 129.064 19.9935C128.818 20.0731 128.584 20.1881 128.369 20.335Z" fill="black"/>
<path fill-rule="evenodd" clip-rule="evenodd" d="M43.3447 20.3462C43.3447 20.3462 39.2055 23.1682 36.563 26.373C33.9206 29.5778 30.4872 35.5596 31.8546 38.239C33.2221 40.9184 35.336 41.1023 36.1602 40.7083C37.232 40.1941 39.8559 39.3385 44.9967 35.1768C49.9749 31.1427 55.0122 24.324 54.9753 23.4084C54.9383 22.4927 53.2863 20.8865 52.9352 20.5601C52.525 20.1848 52.1961 19.7195 51.93 20.7627C51.7748 21.3294 51.3017 23.6335 47.3288 28.7109C44.0987 32.8389 37.4796 38.9408 36.2009 38.8432C34.9849 38.7381 35.5282 36.8167 37.4426 33.4318C39.5344 29.7316 43.9213 25.8926 46.2163 24.1214C47.9053 22.8154 48.2823 22.8154 48.3118 22.564C48.3414 22.3126 45.0965 20.1135 45.0965 20.1135C44.7678 19.9576 44.3978 19.9154 44.0432 19.9934C43.7956 20.078 43.5606 20.1967 43.3447 20.3462Z" fill="black"/>
<path d="M66.066 26.1292C68.6752 21.5134 64.3844 20.0124 62.4626 20.3051C60.5408 20.5978 54.8383 23.4573 51.4419 28.9137C48.0455 34.3702 49.5534 37.8451 49.849 38.3818C50.3911 39.3638 51.278 40.1022 52.3326 40.4495C53.4043 40.746 55.1302 40.4495 56.1392 39.8904C56.8783 39.4926 62.0524 37.2635 64.3511 33.6684C64.5914 33.2931 66.2692 27.9418 65.9292 28.4146C61.9674 34.0137 56.4866 38.5469 54.842 38.5919C54.5315 38.5919 53.6852 38.4381 53.6852 36.952C53.7301 36.2088 53.854 35.4728 54.0548 34.7567C54.0548 34.7567 63.4605 30.7338 66.066 26.1292ZM61.5978 24.7295C64.7577 22.354 65.1272 23.341 65.2123 23.69C65.2973 24.039 65.3564 24.7745 62.9763 27.165C60.9437 29.2027 55.4296 31.8971 55.4296 31.8971C55.4296 31.8971 58.0942 27.3564 61.5978 24.7295Z" fill="black"/>
<path fill-rule="evenodd" clip-rule="evenodd" d="M108.564 24.2678C108.564 24.2678 105.455 26.6057 102.517 31.4504C99.5792 36.2951 101.453 38.239 101.841 38.7569C102.229 39.2748 103.534 40.258 104.428 40.4156C105.167 40.5469 105.814 40.2993 108.778 38.2653C112.374 35.796 117.134 30.242 118.424 28.437C119.714 26.6319 121.092 23.3558 120.922 22.4627C120.752 21.5696 119.266 20.6952 118.949 20.6276C118.631 20.5601 116.362 20.9429 113.741 23.9075C112.16 25.705 111.406 27.1723 111.402 28.2006C111.398 29.2288 113.228 31.6606 117.685 30.6211C120.819 29.8893 121.514 29.3564 121.514 29.3564L122.622 26.996C122.622 26.996 116.753 30.2045 115.866 29.2476C115.161 28.497 117.936 25.022 118.428 24.992C118.797 24.9695 118.328 26.3017 113.435 31.4579C110.845 34.1486 107.945 36.5124 104.798 38.498C104.428 37.8938 104.472 35.1543 108.9 29.9306C112.226 26.0278 112.503 26.0653 112.503 26.0653C112.804 25.7889 112.848 25.3247 112.603 24.9958C112.274 24.583 110.238 23.7686 109.687 23.8174C109.28 23.8628 108.892 24.0183 108.564 24.2678Z" fill="black"/>
<path d="M113.268 25.1421H111.79V26.6431H113.268V25.1421Z" fill="black"/>
<path fill-rule="evenodd" clip-rule="evenodd" d="M39.8561 18.53C39.287 18.6876 37.4834 18.9653 36.3969 18.1022C34.8336 16.8601 35.5099 12.976 40.6802 12.6833C45.7323 12.4019 46.6304 10.2478 46.6304 10.2478C46.6304 10.2478 46.2202 12.3981 44.631 13.5502C43.441 14.4133 43.3375 14.4058 43.3375 14.4058C43.3375 14.4058 43.8253 14.5484 44.9415 14.0305C45.1348 13.9549 45.3028 13.8247 45.4256 13.6553C45.0326 14.8209 44.3382 15.8578 43.4151 16.6574C42.378 17.5386 41.1631 18.1778 39.8561 18.53Z" fill="black"/>
<path fill-rule="evenodd" clip-rule="evenodd" d="M21.7876 25.0145C26.1301 22.3877 30.9235 19.6519 35.4619 11.8276C40.3439 3.38776 37.0104 -1.15675 27.7008 0.254263C17.0644 1.86417 2.05595 12.2629 0.134163 22.2C-1.74328 31.8895 16.765 36.3814 13.121 42.2019C9.02245 48.7241 0.429824 51.2684 3.76339 46.5475C7.22262 41.6465 15.7635 38.8395 18.9936 37.7287C21.0743 37.0157 23.1254 36.5165 23.1254 36.5165L23.4617 34.749C23.4617 34.749 12.0825 38.164 6.83087 41.4551C1.71595 44.6561 0.466781 47.1704 0.832661 48.9079C1.19854 50.6454 3.77078 54.2518 6.21737 54.1279C8.66396 54.0041 14.4145 51.501 16.9831 47.2943C19.5516 43.0875 20.0136 40.4344 7.9285 31.3941C-1.36631 24.4366 17.7185 10.5141 23.5911 7.16673C28.6062 4.31093 34.2275 2.35577 35.3953 3.12883C38.2263 5.00517 22.9776 18.1621 15.8078 21.6409C15.8078 21.6409 14.9504 21.7872 15.6231 22.6954C15.6231 22.6954 17.9846 25.0371 18.3136 25.3485C19.4629 26.4256 21.466 25.2097 21.7876 25.0145Z" fill="black"/>
<path fill-rule="evenodd" clip-rule="evenodd" d="M103.397 45.3129C96.3045 43.6692 90.3839 42.6035 71.4173 42.656C48.415 42.7198 35.3911 48.3976 32.4382 51.2121C30.0766 53.4638 30.4869 56.1619 32.32 57.9069C34.1531 59.6519 35.4022 60.0385 35.6461 59.9972C36.1709 59.9109 35.6683 59.7045 36.4999 58.8001C36.8694 58.4023 42.6348 50.8144 64.4878 48.2925C87.0725 45.6657 98.5848 47.2718 103.478 47.861C108.371 48.4502 109.11 48.923 109.546 49.0994C110.33 49.4146 110.027 49.9175 110.481 49.5084C110.737 49.1985 110.782 48.7624 110.596 48.4051C110.415 47.9435 109.336 46.6901 103.397 45.3129Z" fill="black"/>
<path fill-rule="evenodd" clip-rule="evenodd" d="M115.752 28.9124L117.908 29.1338L116.52 30.8233L115.148 31.1523L114.152 30.6979L115.752 28.9124Z" fill="black"/>
</svg>
